<?xml version="1.0" encoding="utf-8"?><svg xmlns="http://www.w3.org/2000/svg" xmlns:xlink="http://www.w3.org/1999/xlink"><symbol viewBox="0 0 64 64" id="adapt" xmlns="http://www.w3.org/2000/svg"><g data-name="Computer tablet smartphone"><path d="M31 18h2v2h-2zm-4 0h2v2h-2zm8 0h2v2h-2zM11 56h2v2h-2zm4 0h2v2h-2zm4 0h2v2h-2z"/><path d="M59 2H5a3 3 0 0 0-3 3v52a5.006 5.006 0 0 0 5 5h18a5.006 5.006 0 0 0 5-5v-1h12v1a5.006 5.006 0 0 0 5 5h10a5.006 5.006 0 0 0 5-5V5a3 3 0 0 0-3-3zM4 5a1 1 0 0 1 1-1h54a1 1 0 0 1 1 1v25.994a4.944 4.944 0 0 0-1-.562V5H5v17.422c-.038.016-.074.035-.111.052-.093.043-.855.5-.889.524zm46 27h4v1h-4zM7 22V7h50v23H47a5.009 5.009 0 0 0-4.9 4H30v-7a5.006 5.006 0 0 0-5-5zm13 2v1a1 1 0 0 1-1 1h-6a1 1 0 0 1-1-1v-1zm10 12h12v6H30zm-2 21a3 3 0 0 1-3 3H7a3 3 0 0 1-3-3V27a2.994 2.994 0 0 1 2.271-2.907A2.634 2.634 0 0 1 7 24h3v1a3 3 0 0 0 3 3h6a3 3 0 0 0 3-3v-1h3a3 3 0 0 1 3 3zm2-3V44h6.333L40.5 54zm8.5-10H42v8.4zM60 57a3 3 0 0 1-3 3H47a3 3 0 0 1-3-3V35a3 3 0 0 1 3-3h1v1a2 2 0 0 0 2 2h4a2 2 0 0 0 2-2v-1h1a2.642 2.642 0 0 1 .712.091l.035.007h.014A2.985 2.985 0 0 1 60 35z"/><path d="M51 56h2v2h-2zm4 0h2v2h-2zm-8 0h2v2h-2z"/></g></symbol><symbol viewBox="0 0 256 212" preserveAspectRatio="xMinYMin meet" id="bem" xmlns="http://www.w3.org/2000/svg"><path d="M0 32.692h59.85v17.603H0V32.692zM0 0h59.85v17.603H0V0zm107.38 65.132H0v17.603h103.356c11.316 0 37.72.251 47.528 16.094v-9.807c-4.778-15.592-18.86-23.89-43.505-23.89zm.25 32.691H0v17.603h103.356c25.147 0 40.99 1.006 47.528 4.527v-7.796c-5.03-12.322-26.153-14.334-43.253-14.334zm-.25 82.986H0v-17.603h103.356c11.316 0 37.72-.251 47.528-16.094v9.807c-4.778 15.592-18.86 23.89-43.505 23.89zm.25-32.691H0v-17.603h103.356c25.147 0 40.99-1.006 47.528-4.527v7.796c-5.03 12.322-26.153 14.334-43.253 14.334zm69.407 63.12H256v-10.814h-76.7c-6.79 0-22.883-.251-28.667-9.556v6.036c2.766 9.304 11.316 14.334 26.404 14.334zm-.251-19.867h78.963v-10.813H179.3c-15.34 0-24.896-.503-28.668-2.766v4.778c3.017 7.544 15.842 8.801 26.153 8.801z"/></symbol><symbol viewBox="0 0 47.971 47.971" id="close" xmlns="http://www.w3.org/2000/svg"><path d="M28.228 23.986L47.092 5.122a2.998 2.998 0 0 0 0-4.242 2.998 2.998 0 0 0-4.242 0L23.986 19.744 5.121.88a2.998 2.998 0 0 0-4.242 0 2.998 2.998 0 0 0 0 4.242l18.865 18.864L.879 42.85a2.998 2.998 0 1 0 4.242 4.241l18.865-18.864L42.85 47.091c.586.586 1.354.879 2.121.879s1.535-.293 2.121-.879a2.998 2.998 0 0 0 0-4.242L28.228 23.986z"/></symbol><symbol viewBox="0 0 512 512" id="copyright" xmlns="http://www.w3.org/2000/svg"><path d="M256 512c-68.379 0-132.668-26.629-181.02-74.98C26.63 388.668 0 324.379 0 256S26.629 123.332 74.98 74.98C123.332 26.63 187.621 0 256 0s132.668 26.629 181.02 74.98C485.37 123.332 512 187.621 512 256s-26.629 132.668-74.98 181.02C388.668 485.37 324.379 512 256 512zm0-472C136.898 40 40 136.898 40 256s96.898 216 216 216 216-96.898 216-216S375.102 40 256 40zm105.36 321.36l-28.286-28.286c-42.5 42.5-111.648 42.5-154.148 0s-42.5-111.648 0-154.148 111.648-42.5 154.148 0l28.285-28.285c-58.097-58.094-152.625-58.094-210.718 0-58.094 58.097-58.094 152.625 0 210.718 29.047 29.047 67.203 43.57 105.359 43.57 38.152 0 76.313-14.523 105.36-43.57zm0 0"/></symbol><symbol viewBox="0 0 50 50" id="css3" xmlns="http://www.w3.org/2000/svg"><path d="M39 40l-14 4-14-4L8 6h34l-3 34zm.816-32H10.184l2.687 30.453L25 41.922l12.129-3.469zM16.801 28h4l.097 2.5L25 31.898l4.102-1.398.296-4.5h-8.796l-.204-4h9.204l.296-4H16.102l-.301-4h18.3l-.5 8-.703 11.5L25 36.102 17.102 33.5z" fill-rule="evenodd"/></symbol><symbol viewBox="0 0 512 512" id="email" xmlns="http://www.w3.org/2000/svg"><path d="M410.272 243.145c-3.63-4.486-10.211-5.179-14.695-1.548l-3.636 2.942c-4.485 3.631-5.177 10.211-1.546 14.696a10.43 10.43 0 0 0 8.128 3.875c2.309 0 4.634-.762 6.568-2.328l3.635-2.942c4.484-3.631 5.177-10.21 1.546-14.695zm-29.909 24.212c-3.63-4.486-10.211-5.179-14.695-1.549l-74.708 59.674c-4.485 3.631-5.177 10.21-1.546 14.695a10.425 10.425 0 0 0 8.127 3.875 10.41 10.41 0 0 0 6.568-2.327l74.708-59.674c4.484-3.63 5.177-10.208 1.546-14.694z"/><path d="M449.742 62.685H62.258C27.929 62.685 0 90.614 0 124.942v262.117c0 34.329 27.929 62.257 62.258 62.257h387.484c34.33 0 62.258-27.928 62.258-62.257V124.942c0-34.328-27.928-62.257-62.258-62.257zm-29.83 20.897L255.859 216.19 91.806 83.582h328.106zm8.214 344.836H83.592V184.382l165.712 133.49a10.45 10.45 0 0 0 13.11 0l165.711-133.49v244.036zm62.976-41.36c0 22.806-18.554 41.359-41.36 41.359h-.717v-265.87a10.447 10.447 0 0 0-17.004-8.137L255.859 296.318 79.697 154.41a10.448 10.448 0 0 0-17.004 8.137v265.87h-.436c-22.805.001-41.359-18.553-41.359-41.358V124.942c0-21.626 16.688-39.418 37.861-41.2l190.532 154.012a10.426 10.426 0 0 0 6.568 2.323c2.327 0 4.653-.774 6.568-2.323L452.983 83.721c21.295 1.66 38.119 19.507 38.119 41.22v262.117z"/></symbol><symbol viewBox="0 0 32 32" id="git" xmlns="http://www.w3.org/2000/svg"><path d="M16 2c-.504 0-.996.184-1.375.563l-2.813 2.843c-.152.082-.28.2-.374.344l-8.876 8.875a1.947 1.947 0 0 0 0 2.75l12.063 12.063a1.955 1.955 0 0 0 2.75 0l12.063-12.063a1.947 1.947 0 0 0 0-2.75L17.374 2.562A1.923 1.923 0 0 0 16 2zm0 2.031L27.969 16 16 27.969 4.031 16l8.282-8.281 1.75 1.75A1.98 1.98 0 0 0 14 10c0 .738.402 1.371 1 1.719v8.562c-.598.348-1 .98-1 1.719a1.999 1.999 0 1 0 4 0c0-.738-.402-1.371-1-1.719v-7.843l3.063 3.062A1.999 1.999 0 0 0 22 18a2 2 0 0 0 1.999-2 1.999 1.999 0 0 0-2.5-1.938L17.937 10.5A1.999 1.999 0 0 0 16 8a1.98 1.98 0 0 0-.53.063l-1.75-1.75z"/></symbol><symbol viewBox="0 0 512 512" id="github" xmlns="http://www.w3.org/2000/svg"><path d="M386 53c0 5.523-4.477 10-10 10s-10-4.477-10-10 4.477-10 10-10 10 4.477 10 10zm-130 53c-93.738 0-170 76.262-170 170 0 94.645 76.879 170 170 170 93.324 0 170-75.488 170-170 0-93.738-76.262-170-170-170zm-30.793 316.82c.508-2.207.781-4.492.793-6.82v-39.836c-.023-14.582 5.059-16.844 10.875-25.726a10.013 10.013 0 0 0 .762-9.57 9.992 9.992 0 0 0-7.649-5.798c-39.668-5.922-55.238-26.37-61.316-42.48-8.094-21.461-3.809-48.223 10.418-65.094 2.164-2.543 4.101-7.113 2.547-11.687-3.035-9.168-2.563-23.813-.672-29.477 8.617 1.262 16.668 6.145 25.84 11.711 5.308 3.227 9.082 6.203 15.504 4.477 11.222-3.043 22.558-4.66 33.691-4.81 11.137.145 22.473 1.767 33.71 4.813 6.384 1.723 10.282-1.32 15.485-4.48 9.176-5.566 17.227-10.453 25.844-11.711 1.89 5.66 2.363 20.3-.644 29.395-1.582 4.652.351 9.226 2.515 11.77 14.23 16.866 18.516 43.632 10.418 65.093-6.074 16.11-21.644 36.558-61.312 42.476a10.005 10.005 0 0 0-6.891 15.372c5.805 8.863 10.902 11.125 10.879 25.742v39.875c.012 2.304.281 4.574.785 6.765a150.715 150.715 0 0 1-61.582 0zm80.902-5.402A11.262 11.262 0 0 1 306 416v-39.805c.02-11.476-2.504-18.941-5.629-24.539 30.348-8.203 51.977-26.308 61.668-52.008 10.238-27.144 5.594-59.593-11.45-82.058 3.106-13.668 3.016-35.254-4.425-45.07-3.328-4.395-7.976-6.672-13.117-6.45-15.637.723-27.688 8.528-40.813 16.442-12.011-3.04-24.144-4.653-36.113-4.801a2.504 2.504 0 0 0-.242 0c-11.973.144-24.113 1.762-36.113 4.8-13.024-7.85-25.11-15.714-40.817-16.44-5.117-.235-9.781 2.054-13.113 6.449-7.43 9.8-7.531 31.335-4.422 45.062-17.043 22.465-21.691 54.922-11.453 82.066 9.691 25.7 31.32 43.805 61.668 52.004-2.469 4.422-4.555 10.016-5.316 17.817-12.368 4.324-22.38 1.472-29.176-9.98-7.95-13.372-21.418-24.157-36.856-22.825-5.504.477-9.578 5.324-9.101 10.824.472 5.504 5.336 9.586 10.824 9.106 7.148-.621 14.2 6.824 17.937 13.11 10.688 18.01 28 24.44 46.059 20.577v25.66a11.44 11.44 0 0 1-.113 1.473C146.687 396.41 106 339.394 106 276c0-82.71 67.29-150 150-150s150 67.29 150 150c0 63.395-40.687 120.41-99.89 141.418zm0 0"/><path d="M462 0H50C22.43 0 0 22.43 0 50v412c0 27.57 22.43 50 50 50h412c27.57 0 50-22.43 50-50V50c0-27.57-22.43-50-50-50zm30 462c0 16.543-13.457 30-30 30H50c-16.543 0-30-13.457-30-30V50c0-16.543 13.457-30 30-30h412c16.543 0 30 13.457 30 30zm0 0"/><path d="M136 63h200c5.523 0 10-4.477 10-10s-4.477-10-10-10H136c-5.523 0-10 4.477-10 10s4.477 10 10 10zm0 0"/></symbol><symbol viewBox="0 0 300 400" id="gulp" xmlns="http://www.w3.org/2000/svg"><path d="M128.5 369.6c-12.4-2.2-20.9-5.6-22-8.9-.2-.6-1.3-13.9-2.4-29.4l-2.1-28.2-5.5-9.2c-3-5-5.5-9.2-5.5-9.4 0-.1 3.1.9 6.8 2.1 21 7.1 56.1 9.1 83.2 4.9 8.5-1.3 22-4.4 26.4-6.1.9-.3 1.6-.4 1.6-.1 0 .3-2.2 4.3-4.8 8.9l-4.8 8.3-1.8 29c-1.5 27-1.8 29.1-3.8 31.2-2.6 2.8-11.8 5.8-22.3 7.2-10 1.4-34.1 1.2-43-.3z"/><path d="M137.6 290.8c-18.9-1-42.2-5.9-47.9-10.1-1.6-1.1-2.2-5.5-4.6-29.7-1.5-15.7-2.7-28.6-2.6-28.8.1-.1 1.4.3 2.9.9 4.1 1.9 9.6-.3 16.6-6.8 3.3-3.1 6.3-5.4 6.5-5.1.2.2-.7 3.9-2 8.1-2.4 7.6-3.3 14.7-1.7 14.7 2.3-.1 3.7-2.9 7.1-14.6 2.1-7.1 5-16.2 6.5-20.2 1.4-4 2.6-9.1 2.6-11.3 0-3.6-.3-4-2.2-3.7-1.7.2-2.6 1.8-4.4 7.1-3.4 10.1-11.4 20.1-19.5 24.2-2.8 1.5-3.3 1.5-5.5 0-2.1-1.3-2.4-2.3-2.4-7.3 0-7.6 2.2-14.8 7.6-25.1 7.6-14.5 15.8-22.2 21.7-20.7 1.6.4 3.7 2.2 5.2 4.6 3.2 5.1 6.5 5.5 6.5.9 0-5.9-6.8-11.9-13.7-11.9-9.5 0-22.9 14.1-30 31.5-1.8 4.4-3.7 8.1-4.3 8.3s-1-1.4-1-4c0-3.8-7.1-72.4-8.5-82l-.5-3.7 3.5 1.5c22.9 9.5 120.4 10.4 150.9 1.3 3.7-1.1 7-1.9 7.1-1.7.2.2-1.4 16.8-3.5 36.8-2.2 20.1-4.5 41.7-5.1 48l-1.2 11.5-4.5 4c-7.2 6.4-11.6 9.4-13.4 9.5-2.9 0-2.1-2.2 2.8-8 5.4-6.4 8.8-13.3 7.9-15.9-.3-1-1.8-2.4-3.4-3.1-3.6-1.5-8.2.3-13.9 5.4l-4 3.7.5-4.1c.4-3.1.2-4-.9-4-2.1 0-3.3 1.7-5.4 7.8-1.4 4-3.1 6.4-6.9 9.6-7 5.9-9.6 7.6-11.9 7.6-3.1 0-1.6-5.7 8.3-29.5 5-12.1 8.9-22.6 8.6-23.3-.3-.7-1.5-1.2-2.7-1-2.4.3-4.6 5.2-17.3 38.1-4.2 10.9-5.4 13.1-8.2 14.8-7.4 4.6-8.7-.5-3.3-13.3 3.2-7.4 3.6-12.3 1.1-12.3-1.6 0-1.6.1-6.4 10.7-4.3 9.3-10.5 16.1-14.5 15.6-2.4-.3-2.7-.7-2.6-4 .1-2 1.8-7.1 3.8-11.3 3.7-8 4.2-10 2.7-10.9-3.1-1.9-8.1 6.6-12.3 21.1-2 6.8-2.1 7.3-.5 9.7 3.1 4.7 12.1 2.7 17.3-3.8 3.4-4.2 4.7-4.6 3.8-1.1-.3 1.4-.3 3.6 0 5 .8 3.2 3.8 3.3 9.8.1l4.4-2.3 1 2.1c1.8 4.1 6.9 3.4 13.9-2 2.6-1.9 4.9-3.4 5.1-3.1.2.2-2.1 5.8-5.1 12.5-5.6 12.4-6.6 16.6-4.1 17.5 2.7 1 4.6-1.8 8.9-13.3 9.3-24.3 17.5-36 25.5-36 3.2 0 2.8 2.9-1.1 7.6-10 11.7-12.3 17.7-7.2 19 5.4 1.3 9.2-.3 18.9-8 2-1.6 3.8-2.7 4-2.5.1.2-1.5 15.5-3.7 33.9-3.1 26.5-4.3 33.7-5.6 34.7-2.5 2-15.6 5.9-26 7.8-12.4 2.2-31.6 3.2-47.5 2.3z"/><path d="M114 111.9c-16.3-1.1-35-4.3-40-6.9-11.1-5.7 1.2-11 33-14.1 6.3-.6 23-1.4 36.9-1.8l25.5-.6 4-16.2 4.1-16.2 5.5-5.8C216.7 14.7 221.4 10 223.4 10c2.9 0 8.6 5.6 8.6 8.4 0 1.4-6.9 9.4-19.9 23.1l-19.8 21-3.3 13.3c-1.8 7.3-3 13.5-2.7 13.8.2.3 4.9.9 10.3 1.5 13.7 1.3 26.1 3.7 31.2 5.9 3.5 1.6 4.3 2.4 4 4.2-.4 3.3-5.9 5.5-19.1 7.8-22.2 3.7-66.4 5-98.7 2.9zm61.8-5.6c-1-.2-2.6-.2-3.5 0-1 .3-.2.5 1.7.5s2.7-.2 1.8-.5z"/></symbol><symbol viewBox="0 0 32 32" id="html5" xmlns="http://www.w3.org/2000/svg"><path d="M5.219 4l.093 1.094 1.75 19.781.063.688.656.187 7.938 2.219.25.062.281-.062 7.938-2.188.656-.187.062-.688 1.782-19.812.093-1.063h-1.093L6.313 4zm2.187 2l17.188.031-1.625 18L16 25.97l-7-1.94zm2.407 3l.656 7.469h8.562l-.281 3.218-2.75.75h-.031l-2.75-.75-.156-2.062h-2.5l.343 3.969L15.97 23H16l5.063-1.406L21.75 14h-9.031l-.219-2.531h9.469L22.187 9z"/></symbol><symbol viewBox="0 0 50 50" id="jq" xmlns="http://www.w3.org/2000/svg"><path d="M29.867 3.008a1.13 1.13 0 0 0-.312.094c-.86.425-1.836 1.691-2.024 1.941A8.965 8.965 0 0 0 26 9.988a9.875 9.875 0 0 0 .77 3.89c1.218 2.927 3.75 5.349 6.761 6.481l.375.133c.016.008.164.055.188.059l.11.039c.155.05.316.101.472.133.793.16 1.566.25 2.293.273.125 0 .25.004.375.004 5.48 0 7.605-3.867 8.312-5.156.07-.125.121-.227.168-.29 0-.003 0-.003.004-.007a1 1 0 0 0-1.652-1.125h-.004c-1.461 2.152-3.961 2.805-7.426 1.945a7.132 7.132 0 0 1-.789-.254 9.557 9.557 0 0 1-.96-.402 10.07 10.07 0 0 1-1.692-1.059c-3.047-2.363-4.239-7.28-2.457-10.12a1 1 0 0 0-.98-1.524zM21.007 5a.979.979 0 0 0-.644.227c-1.511 1.23-3.058 3.246-3.125 3.328a.263.263 0 0 1-.027.043c-2.734 3.98-2.941 9.644-.523 14.43.378.757.808 1.48 1.265 2.144l.137.195c.387.567.82 1.207 1.375 1.707.191.219.398.43.601.633l.098.102.082.082c.207.199.418.402.637.597h.004c.015.024.039.04.058.059.246.219.496.426.828.687l.09.067a16.646 16.646 0 0 0 .871.652c.094.063.188.121.282.188l.093.062.11.07c.199.133.394.254.672.415.18.109.37.218.496.28.054.032.113.063.25.137l.304.16.102.047c.2.102.406.2.613.293l.317.141c.207.09.418.176.675.274l.118.042c.007.008.105.043.113.047.187.067.379.133.57.196l.438.144c.218.074.472.16.75.207a24.16 24.16 0 0 0 3.941.344c.149 0 .297-.004.442-.004 11.039-.242 13.91-9.621 13.937-9.715a1.004 1.004 0 0 0-.531-1.187 1 1 0 0 0-1.254.343c-2.797 4.086-8.086 5.813-13.473 4.391a11.68 11.68 0 0 1-.793-.23 2.676 2.676 0 0 1-.176-.063 9.093 9.093 0 0 1-.543-.187l-.277-.106a12.72 12.72 0 0 1-.515-.21l-.13-.06c-.238-.1-.468-.214-.675-.316l-.57-.297c-.13-.062-.243-.132-.418-.238l-.098-.055-.098-.058a6.482 6.482 0 0 1-.422-.27l-.093-.058a1.38 1.38 0 0 1-.094-.067l-.34-.218c-.242-.172-.48-.352-.758-.57l-.11-.09c-2.577-2.06-4.484-4.81-5.378-7.758-.832-2.707-.215-6.25 1.652-9.477a.995.995 0 0 0-.218-1.262.985.985 0 0 0-.637-.238zM10.005 8c-.238 0-.48.086-.672.258-1.91 1.715-3.34 3.937-3.496 4.191-4.086 5.95-3.297 15.196-.492 20.848.054.117.113.23.172.344l.039.062c.05.113.11.23.129.254a.968.968 0 0 0 .097.18c.047.097.094.183.18.332l.32.55.11.18c.062.102.129.207.195.313l.156.25c.047.074.094.14.125.18a12.434 12.434 0 0 0 .508.742l.063.086c.14.203.285.398.414.558l.57.723c.008.008.07.082.074.09l.082.093c.172.211.356.422.54.625.027.032.054.059.081.09.176.192.356.383.543.582l.18.172c.148.156.297.309.453.453 0 .004.074.074.074.074l.156.145c.188.18.383.36.532.484.008.012.148.133.16.141.183.164.367.32.555.473l.957.757c.16.118.324.235.511.372.063.046.13.093.196.136a.672.672 0 0 0 .078.059l.719.48c.261.172.523.332.843.524l.172.097c.2.118.402.235.594.336.113.063.226.118.324.168.137.075.285.157.512.266a18.4 18.4 0 0 0 .945.445c0 .004.094.047.094.047a42.158 42.158 0 0 0 .984.406c.242.094.496.188.703.262l.145.059a37.103 37.103 0 0 0 1.031.332l.2.062c.242.074.484.153.745.203 1.86.34 3.676.516 5.395.516h.004c14.324 0 18.887-11.527 18.933-11.645a1 1 0 0 0-1.734-.96c-3.676 4.84-10.61 6.636-18.547 4.812a10.624 10.624 0 0 1-.578-.16l-.375-.113a21.3 21.3 0 0 1-.754-.25c-.004 0-.117-.043-.117-.043-.219-.075-.437-.16-.629-.235l-.219-.086a19.327 19.327 0 0 1-.718-.304l-.137-.059c-.211-.098-.414-.191-.617-.293a4.214 4.214 0 0 0-.192-.09c-.14-.07-.28-.144-.46-.242l-.817-.437a2.798 2.798 0 0 0-.25-.149c-.246-.152-.5-.305-.75-.465-.059-.035-.11-.074-.207-.14-.172-.11-.34-.223-.586-.395l-.098-.07c-.168-.117-.332-.242-.468-.344-.086-.062-.172-.133-.313-.238-.125-.098-.25-.192-.367-.285l-.219-.18c-.183-.149-.355-.305-.535-.457a.509.509 0 0 0-.07-.059c-.2-.183-.403-.367-.645-.597l-.707-.703a20.912 20.912 0 0 1-.539-.57c-.18-.2-.351-.4-.582-.673l-.422-.515a2.671 2.671 0 0 0-.172-.227c-.144-.195-.289-.387-.433-.59-3.89-5.36-4.907-16.547-1.875-20.644A1 1 0 0 0 10.004 8z"/></symbol><symbol viewBox="0 0 50 50" id="js" xmlns="http://www.w3.org/2000/svg"><path d="M6.668 4A2.684 2.684 0 0 0 4 6.668v36.664A2.684 2.684 0 0 0 6.668 46h36.664A2.682 2.682 0 0 0 46 43.332V6.668A2.682 2.682 0 0 0 43.332 4zm0 2h36.664c.371 0 .668.297.668.668v36.664a.665.665 0 0 1-.668.668H6.668A.665.665 0 0 1 6 43.332V6.668C6 6.297 6.297 6 6.668 6zM23 23v12.574c0 1.93-.73 2.426-2 2.426-1.328 0-2.25-.828-2.86-1.902L15 38c.91 1.926 3.14 4 6.234 4C24.656 42 27 40.18 27 36.184V23zm12.453 0c-3.406 0-5.59 2.18-5.59 5.043 0 3.105 1.832 4.574 4.586 5.746l.953.41c1.739.762 2.598 1.227 2.598 2.535 0 1.09-.828 1.88-2.41 1.88-1.883 0-2.774-1.278-3.59-2.614l-3 2c1.121 2.215 3.133 4 6.676 4C39.3 42 42 40.117 42 36.684c0-3.188-1.828-4.606-5.074-5.996l-.953-.407c-1.637-.71-2.348-1.172-2.348-2.316 0-.926.71-1.637 1.828-1.637 1.098 0 1.8.465 2.453 1.637l2.973-1.906c-1.254-2.215-3-3.059-5.426-3.059z"/></symbol><symbol viewBox="0 0 368 368" id="lang" xmlns="http://www.w3.org/2000/svg"><path d="M347.816 100.367C317.305 40.855 255.352 0 184 0 112.625 0 50.664 40.871 20.16 100.426c-.12.238-.265.453-.36.703C7.169 126.055 0 154.199 0 184c0 29.809 7.168 57.953 19.8 82.871.095.25.24.465.36.703C50.656 327.13 112.625 368 184 368c71.352 0 133.305-40.848 163.816-100.367.137-.266.297-.504.399-.785C360.84 241.93 368 213.793 368 184s-7.16-57.93-19.785-82.848c-.11-.28-.262-.52-.399-.785zM335.56 256h-70.32c3.906-19.71 6.226-41.266 6.663-64h79.692c-1.082 22.824-6.7 44.434-16.035 64zM184 352c-25.305 0-48-32.441-60.871-80H244.87C232 319.559 209.305 352 184 352zm-64.695-96c-4.137-19.672-6.64-41.305-7.121-64h143.64c-.488 22.695-2.992 44.328-7.12 64zM16.406 192h79.692c.445 22.734 2.757 44.29 6.664 64h-70.32c-9.337-19.566-14.954-41.176-16.036-64zm16.035-80h70.32c-3.906 19.71-6.226 41.266-6.663 64H16.406c1.082-22.824 6.7-44.434 16.035-64zM184 16c25.305 0 48 32.441 60.871 80H123.13C136 48.441 158.695 16 184 16zm64.695 96c4.137 19.664 6.64 41.305 7.121 64h-143.64c.488-22.695 2.992-44.336 7.12-64zm23.207 64c-.445-22.734-2.757-44.29-6.664-64h70.32c9.337 19.566 14.954 41.176 16.036 64zm54.93-80h-65.215c-8.097-31.742-20.512-57.633-35.722-74.496C268.383 32.473 304.32 59.594 326.832 96zM142.098 21.504C126.895 38.367 114.48 64.258 106.375 96H41.16c22.52-36.406 58.457-63.527 100.938-74.496zM41.168 272h65.207c8.098 31.742 20.512 57.633 35.723 74.496C99.618 335.527 63.68 308.398 41.168 272zm184.734 74.496c15.203-16.863 27.618-42.754 35.723-74.496h65.207c-22.512 36.398-58.45 63.527-100.93 74.496zm0 0"/></symbol><symbol viewBox="0 0 512 512" id="linkedin" xmlns="http://www.w3.org/2000/svg"><path d="M382 492H30c-5.516 0-10-4.484-10-10V30c0-5.516 4.484-10 10-10h20c5.523 0 10-4.477 10-10S55.523 0 50 0H30C13.457 0 0 13.457 0 30v452c0 16.543 13.457 30 30 30h352c5.52 0 10-4.477 10-10s-4.477-10-10-10zM482 0H130c-5.523 0-10 4.477-10 10s4.477 10 10 10h352c5.516 0 10 4.484 10 10v452c0 5.516-4.484 10-10 10h-20c-5.523 0-10 4.477-10 10s4.477 10 10 10h20c16.543 0 30-13.46 30-30V30c0-16.543-13.457-30-30-30zm0 0"/><path d="M123.25 176.75c29.086 0 52.75-23.664 52.75-52.75 0-29.09-23.664-52.75-52.75-52.75-29.09 0-52.75 23.664-52.75 52.75s23.66 52.75 52.75 52.75zm0-85.5c18.059 0 32.75 14.691 32.75 32.75s-14.691 32.75-32.75 32.75S90.5 142.059 90.5 124s14.691-32.75 32.75-32.75zm221 90.5c-22.102 0-43.434 7.688-60.5 21.273v-6.273c0-5.523-4.48-10-10-10H204c-5.523 0-10 4.477-10 10v234c0 5.523 4.477 10 10 10h73.5c5.52 0 10-4.477 10-10V295.687c0-16.68 13.57-30.25 30.25-30.25s30.25 13.57 30.25 30.25V430.75c0 5.523 4.477 10 10 10h73.5c5.52 0 10-4.477 10-10V279c0-53.625-43.629-97.25-97.25-97.25zm77.25 239H368V295.687c0-27.707-22.543-50.25-50.25-50.25-27.71 0-50.25 22.543-50.25 50.25V420.75H214v-214h49.75v21.012a9.999 9.999 0 0 0 18.074 5.894c14.586-19.976 37.922-31.906 62.426-31.906 42.594 0 77.25 34.652 77.25 77.25zm-335-234c-5.523 0-10 4.477-10 10v234c0 5.523 4.477 10 10 10H160c5.52 0 10-4.477 10-10v-234c0-5.523-4.48-10-10-10zm63.5 234H96.5v-214H150zM90.004 20c5.52 0 10-4.477 10-10s-4.48-10-10-10h-.008C84.473 0 80 4.477 80 10s4.48 10 10.004 10zm332 472h-.008c-5.523 0-9.996 4.477-9.996 10s4.48 10 10.004 10c5.523 0 10-4.477 10-10s-4.477-10-10-10zm0 0"/></symbol><symbol viewBox="0 0 840.51 840.51" id="logo" xmlns="http://www.w3.org/2000/svg"><path d="M840.51 820.51V20c0-11.046-8.954-20-20-20H20C8.954 0 0 8.954 0 20v800.51c0 11.046 8.954 20 20 20h800.51c11.046 0 20-8.955 20-20zM75 75h345.255v64.459h73.608c9.523 0 18.604 2.996 26.257 8.666 7.652 5.669 13.165 13.481 15.939 22.592l147.833 485.31c4.115 13.508 1.654 27.763-6.751 39.109-8.404 11.347-21.324 17.855-35.445 17.855H536.094a44.279 44.279 0 0 1-27.442-9.576 44.284 44.284 0 0 1-15.528-24.571l-17.856-77.003h-55.012V765.51H75V75z"/><path d="M659.978 663.311l-147.833-485.31a19.11 19.11 0 0 0-18.281-13.542H346.648a19.11 19.11 0 0 0-18.281 13.542l-147.833 485.31c-3.74 12.279 5.446 24.681 18.282 24.681h105.602a19.112 19.112 0 0 0 18.617-14.794l22.343-96.356h149.757l22.343 96.356a19.113 19.113 0 0 0 18.617 14.794h105.603c12.834-.001 22.021-12.403 18.28-24.681zM420.255 469.719h-49.91l8.86-36.245c12.887-49.937 25.773-113.565 38.661-165.919h4.778c12.888 52.354 25.774 115.982 38.661 165.919l8.86 36.245h-49.91z"/></symbol><symbol viewBox="0 0 477.175 477.175" id="next" xmlns="http://www.w3.org/2000/svg"><path d="M145.188 238.575l215.5-215.5c5.3-5.3 5.3-13.8 0-19.1s-13.8-5.3-19.1 0l-225.1 225.1c-5.3 5.3-5.3 13.8 0 19.1l225.1 225c2.6 2.6 6.1 4 9.5 4s6.9-1.3 9.5-4c5.3-5.3 5.3-13.8 0-19.1l-215.4-215.5z"/></symbol><symbol viewBox="-90 0 512 512" id="nextscreen" xmlns="http://www.w3.org/2000/svg"><path d="M166.238 430.145l-89.77-94.899 29.06-27.488 60.632 64.097 60.274-64.058 29.132 27.41zM332 392V120C332 53.832 278.168 0 212 0h-92C53.832 0 0 53.832 0 120v272c0 66.168 53.832 120 120 120h92c66.168 0 120-53.832 120-120zM212 40c44.113 0 80 35.887 80 80v272c0 44.113-35.887 80-80 80h-92c-44.113 0-80-35.887-80-80V120c0-44.113 35.887-80 80-80zm-46 41c-11.047 0-20 8.953-20 20s8.953 20 20 20 20-8.953 20-20-8.953-20-20-20zm0 80c-11.047 0-20 8.953-20 20s8.953 20 20 20 20-8.953 20-20-8.953-20-20-20zm0 80c-11.047 0-20 8.953-20 20s8.953 20 20 20 20-8.953 20-20-8.953-20-20-20zm0 0"/></symbol><symbol viewBox="0 0 512 512" id="pdf" xmlns="http://www.w3.org/2000/svg"><path d="M494.479 138.557L364.04 3.018A9.853 9.853 0 0 0 356.945 0h-194.41c-21.757 0-39.458 17.694-39.458 39.442v137.789H44.29c-16.278 0-29.521 13.239-29.521 29.513v147.744C14.769 370.761 28.012 384 44.29 384h78.787v88.627c0 21.71 17.701 39.373 39.458 39.373h295.238c21.757 0 39.458-17.653 39.458-39.351V145.385a9.85 9.85 0 0 0-2.752-6.828zM359.385 26.581l107.079 111.265H359.385V26.581zM44.29 364.308c-5.42 0-9.828-4.405-9.828-9.82V206.744c0-5.415 4.409-9.821 9.828-9.821h265.882c5.42 0 9.828 4.406 9.828 9.821v147.744c0 5.415-4.409 9.82-9.828 9.82H44.29zm433.248 108.341c0 10.84-8.867 19.659-19.766 19.659H162.535c-10.899 0-19.766-8.828-19.766-19.68V384h167.403c16.278 0 29.521-13.239 29.521-29.512V206.744c0-16.274-13.243-29.513-29.521-29.513H142.769V39.442c0-10.891 8.867-19.75 19.766-19.75h177.157v128c0 5.438 4.409 9.846 9.846 9.846h128v315.111z"/><path d="M132.481 249.894c-3.269-4.25-7.327-7.01-12.173-8.279-3.154-.846-9.923-1.269-20.308-1.269H72.596v84.577h17.077v-31.904h11.135c7.731 0 13.635-.404 17.712-1.212 3-.654 5.952-1.99 8.856-4.01 2.904-2.019 5.298-4.798 7.183-8.336 1.885-3.538 2.827-7.904 2.827-13.096-.001-6.731-1.636-12.221-4.905-16.471zm-14.625 23.279c-1.288 1.885-3.067 3.269-5.337 4.154s-6.769 1.327-13.5 1.327h-9.346v-24h8.25c6.154 0 10.25.192 12.288.577 2.769.5 5.058 1.75 6.865 3.75 1.808 2 2.712 4.539 2.712 7.615.001 2.5-.644 4.692-1.932 6.577zm101.625-9.721c-1.846-5.404-4.539-9.971-8.077-13.702s-7.789-6.327-12.75-7.789c-3.692-1.077-9.058-1.615-16.096-1.615h-31.212v84.577h32.135c6.308 0 11.346-.596 15.115-1.789 5.039-1.615 9.039-3.865 12-6.75 3.923-3.808 6.942-8.788 9.058-14.942 1.731-5.039 2.596-11.039 2.596-18 0-7.923-.923-14.586-2.769-19.99zm-16.616 34.731c-1.154 3.789-2.644 6.51-4.471 8.163-1.827 1.654-4.125 2.827-6.894 3.519-2.115.539-5.558.808-10.327.808h-12.75v-56.019h7.673c6.961 0 11.635.269 14.019.808 3.192.692 5.827 2.019 7.904 3.981 2.077 1.962 3.692 4.692 4.846 8.192s1.731 8.519 1.731 15.058c0 6.538-.577 11.701-1.731 15.49zm91.962-43.529v-14.308h-57.981v84.577h17.077v-35.942h35.308v-14.308h-35.308v-20.019z"/></symbol><symbol viewBox="0 0 477.175 477.175" id="prev" xmlns="http://www.w3.org/2000/svg"><path d="M360.731 229.075l-225.1-225.1c-5.3-5.3-13.8-5.3-19.1 0s-5.3 13.8 0 19.1l215.5 215.5-215.5 215.5c-5.3 5.3-5.3 13.8 0 19.1 2.6 2.6 6.1 4 9.5 4 3.4 0 6.9-1.3 9.5-4l225.1-225.1c5.3-5.2 5.3-13.8.1-19z"/></symbol><symbol viewBox="0 0 32 32" id="ps" xmlns="http://www.w3.org/2000/svg"><path d="M5 5v22h22V5zm2 2h18v18H7zm3 4v10h2v-4h1c1.645 0 3-1.355 3-3s-1.355-3-3-3zm2 2h1c.566 0 1 .434 1 1 0 .566-.434 1-1 1h-1zm7.5 0a2.518 2.518 0 0 0-2.5 2.5c0 1.367 1.133 2.5 2.5 2.5.285 0 .5.215.5.5 0 .363-.063.5-.5.5-.379 0-.434-.086-.438-.094-.003-.008-.062-.039-.062-.281h-2c0 .566.156 1.207.625 1.688.469.48 1.148.687 1.875.687 1.41 0 2.5-1.207 2.5-2.5 0-1.367-1.133-2.5-2.5-2.5a.489.489 0 0 1-.5-.5c0-.285.215-.5.5-.5.27 0 .344.059.406.125a.46.46 0 0 1 .094.281h2c0-.566-.195-1.152-.625-1.625-.43-.472-1.117-.781-1.875-.781z"/></symbol><symbol viewBox="0 0 512.007 512.007" id="sass" xmlns="http://www.w3.org/2000/svg"><path d="M503.47 187.741h-93.867v-76.8c0-.089-.011-.176-.013-.265a9.278 9.278 0 0 0-.143-1.345l-.01-.066a8.505 8.505 0 0 0-.302-1.095c-.022-.065-.047-.128-.07-.192a8.358 8.358 0 0 0-.447-1.014l-.013-.027a8.397 8.397 0 0 0-.738-1.14 8.723 8.723 0 0 0-.796-.92L304.703 2.508a8.596 8.596 0 0 0-.843-.728 8.442 8.442 0 0 0-1.142-.751c-.076-.041-.155-.073-.232-.112a8.484 8.484 0 0 0-1.123-.468 8.527 8.527 0 0 0-.899-.249c-.14-.03-.281-.049-.422-.073a8.275 8.275 0 0 0-1.188-.111c-.062-.001-.122-.009-.184-.009H8.537A8.536 8.536 0 0 0 .004 8.54v494.933a8.536 8.536 0 0 0 8.533 8.533H401.07a8.53 8.53 0 0 0 8.533-8.533v-93.867h93.867a8.53 8.53 0 0 0 8.533-8.533v-204.8a8.53 8.53 0 0 0-8.533-8.532zM307.204 29.14l73.267 73.267h-73.267V29.14zm85.333 465.801H17.07V17.074h273.067v93.867a8.536 8.536 0 0 0 8.533 8.533h93.867v68.267H51.204a8.536 8.536 0 0 0-8.533 8.533v204.8a8.536 8.536 0 0 0 8.533 8.533h341.333v85.334zm102.4-102.4h-435.2V204.807h435.2v187.734z"/><path d="M119.47 238.941c14.114 0 25.6 11.486 25.6 25.6a8.536 8.536 0 0 0 8.533 8.533 8.536 8.536 0 0 0 8.533-8.533c0-23.526-19.14-42.667-42.667-42.667s-42.667 19.14-42.667 42.667c0 23.526 19.14 42.667 42.667 42.667 14.114 0 25.6 11.486 25.6 25.6s-11.486 25.6-25.6 25.6-25.6-11.486-25.6-25.6a8.536 8.536 0 0 0-8.533-8.533 8.536 8.536 0 0 0-8.533 8.533c0 23.526 19.14 42.667 42.667 42.667s42.667-19.14 42.667-42.667c0-23.526-19.14-42.667-42.667-42.667-14.114 0-25.6-11.486-25.6-25.6 0-14.115 11.486-25.6 25.6-25.6zm213.334 0c14.114 0 25.6 11.486 25.6 25.6 0 4.71 3.823 8.533 8.533 8.533s8.533-3.823 8.533-8.533c0-23.526-19.14-42.667-42.667-42.667-23.526 0-42.667 19.14-42.667 42.667 0 23.526 19.14 42.667 42.667 42.667 14.114 0 25.6 11.486 25.6 25.6s-11.486 25.6-25.6 25.6-25.6-11.486-25.6-25.6c0-4.71-3.823-8.533-8.533-8.533s-8.533 3.823-8.533 8.533c0 23.526 19.14 42.667 42.667 42.667 23.526 0 42.667-19.14 42.667-42.667 0-23.526-19.14-42.667-42.667-42.667-14.114 0-25.6-11.486-25.6-25.6 0-14.115 11.486-25.6 25.6-25.6zm102.4 68.266c14.114 0 25.6 11.486 25.6 25.6s-11.486 25.6-25.6 25.6-25.6-11.486-25.6-25.6a8.53 8.53 0 0 0-8.533-8.533 8.536 8.536 0 0 0-8.533 8.533c0 23.526 19.14 42.667 42.667 42.667 23.526 0 42.667-19.14 42.667-42.667 0-23.526-19.14-42.667-42.667-42.667-14.114 0-25.6-11.486-25.6-25.6s11.486-25.6 25.6-25.6 25.6 11.486 25.6 25.6c0 4.71 3.814 8.533 8.533 8.533s8.533-3.823 8.533-8.533c0-23.526-19.14-42.667-42.667-42.667-23.526 0-42.667 19.14-42.667 42.667s19.14 42.667 42.667 42.667zm-205.338-79.799c-1.289-3.405-4.582-5.692-8.235-5.53a8.535 8.535 0 0 0-7.91 5.982l-42.667 136.533a8.543 8.543 0 0 0 5.606 10.692c4.454 1.374 9.276-1.101 10.692-5.598l14.127-45.214h46.472l17.122 45.666a8.55 8.55 0 0 0 7.996 5.538 8.59 8.59 0 0 0 2.995-.546c4.412-1.655 6.647-6.571 5.001-10.991l-51.199-136.532zm-23.053 79.799l15.791-50.539 18.949 50.539h-34.74z"/></symbol><symbol viewBox="0 0 44 44" id="scroll-top" xmlns="http://www.w3.org/2000/svg"><path d="M22 0C9.8 0 0 9.8 0 22s9.8 22 22 22 22-9.8 22-22S34.2 0 22 0zm9.7 19.7l-1.4 1.4c-.4.4-1 .4-1.4 0l-4-4c-.3-.3-.9-.1-.9.4V34c0 .6-.4 1-1 1h-2c-.6 0-1-.4-1-1V17.4c0-.4-.5-.7-.9-.4l-4 4c-.4.4-1 .4-1.4 0l-1.4-1.4c-.2-.2-.3-.4-.3-.7s.1-.5.3-.7l9-9c.2-.2.5-.3.7-.3.3 0 .5.1.7.3l9 9c.2.2.3.4.3.7 0 .4-.1.6-.3.8z"/></symbol><symbol viewBox="0 0 512 512" id="vk" xmlns="http://www.w3.org/2000/svg"><path d="M386 53c0 5.523-4.477 10-10 10s-10-4.477-10-10 4.477-10 10-10 10 4.477 10 10zm-11.797 249.39c-3.5-4.699-2.742-7.78-.062-12.492 3.343-5.87 10-14.836 17.046-24.324 22.602-30.437 37.188-51.512 34.168-66.543a10.003 10.003 0 0 0-9.804-8.031c-.028 0-49.211.012-67.364.102-4.406.02-8.28 2.832-9.535 7.058-2.183 7.367-10.71 27.29-21.047 45.527-13.402 23.649-22.183 31.06-25.277 32.36l-.488-.152c-1.012-1.25-2.77-4.625-3.492-13.364-.754-9.14-.086-20.195.562-30.886.758-12.5 1.414-23.297-.152-30.997-1.078-2.816-.258-12.07-8.875-14.011-11.867-2.676-27.973-3.57-39.457-3.692-27.2-.27-35.203 3.657-39.125 7.121a9.993 9.993 0 0 0-3.18 9.477 9.993 9.993 0 0 0 6.613 7.496c6.098 2.05 8.274 4.652 10.016 16.938 1.105 7.84 1.684 21.003.484 32.75-1.687 16.57-5.707 19.886-6.101 20.156-.856-.281-7.535-3.18-19.598-27.656-10.379-21.055-19.09-46.352-23.16-56.844a10 10 0 0 0-9.324-6.383H97.26a9.999 9.999 0 0 0-9.328 13.605c18.731 48.5 40.223 98.176 70.368 132.938C189.492 368.516 227.992 386 276 386c5.523 0 10-4.477 10-10 0-17.25 2.426-22.371 6.21-29.559 2.099-3.968 4.15-5.671 5.267-5.921 1.011-.235 2.796.511 4.78 1.992 5.688 4.234 10.204 9.808 14.981 15.707 6.887 8.5 14.008 17.293 25.317 23.058 6.164 3.13 17.187 4.715 23.515 4.621H416c5.684 0 10.227-4.632 9.992-10.312-1.222-29.559-42.648-61.707-51.789-73.195zM366 366h-.16c-4.172.102-11.75-1.293-14.219-2.55-7.508-3.829-12.762-10.313-18.844-17.817-5.343-6.602-10.87-13.426-18.57-19.16-14.184-10.575-30.242-7.239-39.684 10.636-5.289 10.032-7.34 16.641-8.191 28.625-37.785-2.125-67.508-16.984-92.922-46.296-25.406-29.301-44.683-71.125-61.496-113.438h38.219c14.945 40.254 34.332 90.902 58.969 90.902 6.054 0 11.484-2.566 15.707-7.425 16.214-18.66 9.812-67.801 9.742-68.301-.856-6.051-2.082-12.41-5.055-18.078 12.7-.5 29.727.324 39.715 1.808.965 5.207.34 15.535-.266 25.528-1.472 24.328-2.996 49.441 10.055 60.898.39.344 7.637 4.742 12.11 4.902 8.132.325 21.43-3.64 42.937-41.007 8.77-15.239 16.918-32.786 21.305-44.25 14.449-.028 34.695-.075 47.988-.063-5.863 12.945-18.828 30.106-28.211 42.738-7.738 10.422-14.422 19.422-18.367 26.352-7.34 12.89-6.106 24.371 1.535 34.504.039.058.082.113.125.168C367.91 326.73 392.539 345.422 402.8 366zm0 0"/><path d="M462 0H50C22.43 0 0 22.43 0 50v412c0 27.57 22.43 50 50 50h412c27.57 0 50-22.43 50-50V50c0-27.57-22.43-50-50-50zm30 462c0 16.543-13.457 30-30 30H50c-16.543 0-30-13.457-30-30V50c0-16.543 13.457-30 30-30h412c16.543 0 30 13.457 30 30zm0 0"/><path d="M136 63h200c5.523 0 10-4.477 10-10s-4.477-10-10-10H136c-5.523 0-10 4.477-10 10s4.477 10 10 10zm0 0"/></symbol><symbol viewBox="0 0 24 24" id="vue" xmlns="http://www.w3.org/2000/svg"><path d="M19.197 1.608l.003-.006h-4.425L12 6.4v.002l-2.772-4.8H4.803v.005H0l12 20.786L24 1.608"/></symbol></svg>